<?xml version="1.0" encoding="UTF-8" standalone="no"?>
<svg
   data-name="Layer 1"
   id="Layer_1"
   viewBox="0 0 163.03 290"
   version="1.1"
   sodipodi:docname="cleodora-icon2.svg"
   inkscape:version="1.2 (1:1.2.1+202207142221+cd75a1ee6d)"
   xmlns:inkscape="http://www.inkscape.org/namespaces/inkscape"
   xmlns:sodipodi="http://sodipodi.sourceforge.net/DTD/sodipodi-0.dtd"
   xmlns="http://www.w3.org/2000/svg"
   xmlns:svg="http://www.w3.org/2000/svg">
  <sodipodi:namedview
     id="namedview81"
     pagecolor="#ffffff"
     bordercolor="#666666"
     borderopacity="1.0"
     inkscape:showpageshadow="2"
     inkscape:pageopacity="0.0"
     inkscape:pagecheckerboard="0"
     inkscape:deskcolor="#d1d1d1"
     showgrid="false"
     inkscape:zoom="2.8908562"
     inkscape:cx="292.64686"
     inkscape:cy="132.65966"
     inkscape:window-width="1856"
     inkscape:window-height="1016"
     inkscape:window-x="64"
     inkscape:window-y="27"
     inkscape:window-maximized="1"
     inkscape:current-layer="layer1"
     showguides="true" />
  <defs
     id="defs4">
    <style
       id="style2">.cls-1{fill:#e0aa93;}.cls-2{fill:#d6e1e5;}.cls-3{fill:#f3f7f8;}.cls-4{fill:#ffd835;}.cls-5{fill:#cc5f50;}.cls-6{fill:#ebf1f4;}.cls-7{fill:#d8ba3e;}.cls-8{fill:#d5957b;}.cls-9{fill:#c7ac36;}.cls-10{fill:#f3cc28;}.cls-11{fill:#c0d3d8;}.cls-12{fill:#d1957d;}.cls-13{fill:#c2443a;}.cls-14{fill:#fff;}</style>
    <clipPath
       clipPathUnits="userSpaceOnUse"
       id="clipPath6144">
      <rect
         style="fill:#f3f7f8;fill-opacity:1;stroke:none;stroke-width:1.75748;stroke-linecap:round"
         id="rect6146"
         width="130.23216"
         height="130.23216"
         x="290.28558"
         y="17.305672" />
    </clipPath>
  </defs>
  <title
     id="title6" />
  <g
     inkscape:groupmode="layer"
     id="layer1"
     inkscape:label="Export background"
     inkscape:export-filename="./logo.png"
     inkscape:export-xdpi="294.858"
     inkscape:export-ydpi="294.858">
    <rect
       style="fill:none;fill-opacity:1;stroke:none;stroke-width:1.75748;stroke-linecap:round"
       id="rect6138"
       width="130.23216"
       height="130.23216"
       x="290.28558"
       y="17.305672"
       inkscape:export-filename="head.png"
       inkscape:export-xdpi="589.716"
       inkscape:export-ydpi="589.716"
       inkscape:label="export rectangle" />
  </g>
  <g
     inkscape:groupmode="layer"
     id="layer2"
     inkscape:label="Default">
    <polygon
       class="cls-1"
       points="16.12 103.93 13.05 101.86 7.62 107.67 13.05 116.88 15.5 137.51 19.81 146.5 16.12 103.93"
       id="polygon8" />
    <path
       class="cls-2"
       d="M213,210.29c-3.21,5.05-9.42,12.79-10.15,13.91.82,3.42.14,2.48-1.53,5,0,0,1.55,2.28,1.53,2.33.09,1.25,2.82,8,4.53,11.74,1.32,2.86,4,5.9,6.65,6.16,1.49.14,2.89-.64,4.13-2.35,2.28-3.13,2-5,1.56-7.67a17.06,17.06,0,0,1,.38-8.56,27.68,27.68,0,0,1,4-7.24c3.49-5.15,8.37-9.57,5.93-27.68C225.09,202.48,214.6,209.38,213,210.29Z"
       transform="translate(-68.48,-5)"
       id="path10" />
    <path
       class="cls-1"
       d="M215,176.16c3.48-.88,11,.27,13.32,1.7-1-5.08-3.42-16.45-4.61-21.41A120.47,120.47,0,0,1,221,143.56c-.62-7.26-6.71-29-14.37-32.59.12,8.47-2,25.65-3.54,32.74C201.2,152.52,213,173.7,215,176.16Z"
       transform="translate(-68.48,-5)"
       id="path12" />
    <path
       class="cls-3"
       d="M226.84,173.83c-2.05-1.6-4.89-1.9-8.45-.89-.33.09-.66.15-1,.23-4.47-6-13.92-20.11-12.22-28,2.26-10.55,4.1-32.19,2.59-35-.9-1.69-5.75-4.8-8.23-4.3.21.31-3.9-.41-3.69-.05,4,6.74-.12,19.6-3.68,30-1.27,3.7-3.82,10.89-4.39,13.46-2.07,9.26-.51,21-.53,21.63.66,10.09,8.44,18.05,14.11,21.81l2.8,1.81c5.91,3.78,10.68,6.56,8.19,19.56,4.55-2.82,18.88-12.42,19.08-18.78V195C231.62,189,232,177.84,226.84,173.83Z"
       transform="translate(-68.48,-5)"
       id="path14" />
    <path
       class="cls-2"
       d="M198.51,107.32c-2.47-4.2-4.87-4.32-8.19-4.48-2.63-.13-9.71-1.18-13.56-3.43,1,1.67.12,6.82,3.08,8.4,1.41.75,2.47,1.19,2.23,3-.81,6.12-7.45,11-14.77,12.65-2.83.65-6.48,1.11-10.74,1.81-8.8,1.45-20.82,3.42-24.23,5.74-4.69,3.19-6.93,16.22-4,21.19,1.9,3.2,5.31,5.77,6.66,8.7l.84,1.93a30.82,30.82,0,0,1,1.26,3.75c1,3.68.95,16.7.28,25.06,28.35-1.24,49-21.25,51.3-23.53.08-2,.6-13.28,2.56-22,.6-2.66,1.81-6.2,3.09-10C197.79,126,202.09,113.39,198.51,107.32Z"
       transform="translate(-68.48,-5)"
       id="path16" />
    <path
       class="cls-4"
       d="M136.89,43.8c4.87-8.6,13.3-8.42,20.42-6,4.44-2.49,7.83-2.75,13.32-.82,5.76,2,8.38,5.79,10.06,10.27,1.43,3.8,5.59,3,8.45,3.61.14,0-.14-3.65,0-3.61-3.81-27.72-19.45-34.56-31-37.29-8.88-2.1-17.44-.16-22.9,5.2-11.16,11-4.31,26.66-2.06,31C133.57,45.42,136.3,44.84,136.89,43.8Z"
       id="path18"
       transform="translate(-68.48,-5)" />
    <path
       class="cls-5"
       d="M187.16,59.09a73.83,73.83,0,0,0,10.1,5.8c1.74-4.65,2.24-7.53-1.3-11.82-2.54-3.08-5.12-3.68-7.62-4.25-2.86-.66-5.81-1.34-7.56-6-1.52-4-5.92-7.84-11.23-9.7s-10.24-1.47-14.3.94c-6.59-2.6-16.88.07-21,7.35a27.67,27.67,0,0,0-1.9,3.93.83.83,0,0,1-.17.45,14.11,14.11,0,0,0-.56,2.25c-.3,1.67-.58,2.66-3.26,5.15-4.5,4.19-1.86,13.57,2.19,17a12.74,12.74,0,0,0,.94,6.49c2.42,5.24,12.12,6.83,15,6.94a51.58,51.58,0,0,1-4.71-10L154.76,47c1.79-.23,3.63-3,10.92,5.39a.77.77,0,0,1,.06.11.78.78,0,0,1,.07.1l8.57,15.07,6.2,5.09a15.45,15.45,0,0,1-4.84,3.54,4.14,4.14,0,0,1-2.58.44L173,81.41h0s1.81,10.49,3.32,16.38c1.64.07,7.8-.62,9-1.73a1.37,1.37,0,0,0,.5-1c0-1.26-.78-2.52-1.65-3.85-1.34-2.06-2.85-4.39-1.14-7.09,1.07-1.69,3-2.65,4.88-3.58,2.89-1.44,5.62-2.79,6-6.57.65-6.61.53-10.05-6.81-14.84l.39-.86C187.6,58.25,187.11,59.06,187.16,59.09Z"
       id="path20"
       transform="translate(-68.48,-5)" />
    <path
       class="cls-6"
       d="M203.22,229c-.16.27-1.22-1-1.38-.74-1.58,2.92-1.84,5.37-3,5.76s-4-1.66-3.83.29l-4.15,3.19-6,37.58c.83.38,3.87,3.42,6.76,3.72,4.5.46,6.38,10.66,6.78,13.16l5.65,3.05Z"
       transform="translate(-68.48,-5)"
       id="path22" />
    <path
       class="cls-2"
       d="M191.74,236.21c-.83-7.85,4.8-16.79,7.12-19.88-19.78,3.11-27.47,11.95-29.12,21.68l-2.34,7.33c-1.15,6.41-1.42,11.12-2.77,13.5,3-1.49,8.53-1.36,10.87,1.13a21.24,21.24,0,0,1,1.8,2.32c1.83,2.59,3.7,5.26,8.74,5.43l4.85-25C190.23,240.55,192.16,240.19,191.74,236.21Z"
       transform="translate(-68.48,-5)"
       id="path24" />
    <path
       class="cls-6"
       d="M201.79,192c-5.57-3.69-11.45-11.5-12.85-21.1l-.25-2.79c-8.47,6.92-30.26,22.39-52.35,23l-1.79,0h-.21a11.15,11.15,0,0,0-8.55,3.75,5.61,5.61,0,0,0-1.41,2.76c-.12.86-.38,2.18-.69,3.79-1.18,6.16-3.06,18.7-1.85,24.47.31,1.47.86,2.38,1.64,2.71,1.85.78,5.27-1.39,8-3.13.9-.57,1.77-1.12,2.56-1.57l-5.76,5.41-2.76,27.85a28.23,28.23,0,0,1,18.23,4.36c9.06,5.7,20.76-2.6,20.89-2.7h0s3.7-4.62,5.46-14.47l.32-1.85c1.72-10.12,4.93-21.22,27.54-24.18,2.17-4.65,5.67-21.16,6.63-24.58Z"
       transform="translate(-68.48,-5)"
       id="path26" />
    <path
       class="cls-1"
       d="M185.51,107.22a14.91,14.91,0,0,1-7.57-9h0a97.5,97.5,0,0,1-2.38-13.84l.24-6.86,1.1.23a2.63,2.63,0,0,0,2.3-.06c2.09-1.08,3.4-4.87,3.73-6.24.09-.26,1.82-4.24-1.3-7-2.6-2.3-4.25-.55-4.25-.55a3.66,3.66,0,0,0-.82.87L172,54.63a18.47,18.47,0,0,0-8.31-8.95,15.32,15.32,0,0,0-9-1.77h-.11c-.57,0-13.89,1-14.9,11.72,0,0-.3,2.28-.35,4.51l0,3.66a42.57,42.57,0,0,0,1.54,10.86c2.34,7.49,9.64,16,14.21,16.57L155.7,93a6.62,6.62,0,0,1-.82,0,6.85,6.85,0,0,1-1.13-.24c.74,2.31,2.31,8.73-1.25,13.25-1.56,2-4.57,2.57-8.39,3.32-6.91,1.36-16.38,3.22-21.49,15.2l-17,27.07c-.08-.15-12.12-22.73-18.36-34.46l2,37.27A164.47,164.47,0,0,0,101,172.57a3.71,3.71,0,0,0,3.23,1.44c2.64-.22,7.27-1.46,12-6.73,9.14-10.14,11.53-14.07,12.08-15.11-3.08-5.88.46-14.64,5.65-18.17,3.72-2.53,14.41-4.3,23.85-5.85,4.22-.7,8.21-1.36,11-2,7-1.61,16.95-11.75,17.6-16.72A1.89,1.89,0,0,0,185.51,107.22Z"
       transform="translate(-68.48,-5)"
       id="path28" />
    <path
       class="cls-1"
       d="M205.5,225.28a.85.85,0,0,1,.09-.76s3-4.5,6.76-10.49c3-12.37-2.19-16.64-7.76-20.26-1.27,4.53-6,21.28-8.1,25.33l-.06.09,0,.06,0,0c-.08.08-7.78,8.56-6.76,18.2a46.09,46.09,0,0,0,1.67,8.68,2.12,2.12,0,0,0,4,.17,7,7,0,0,0,.55-3.42c-.29-3,.73-3.64,2.21-4.16a5.5,5.5,0,0,0,3.49-3.11c1.71-3.17,3.15-4.77,4.12-6.81A4.58,4.58,0,0,0,205.5,225.28Z"
       transform="translate(-68.48,-5)"
       id="path30" />
    <path
       class="cls-7"
       d="M93.9,166.53l-.08-.86-4-43.79a.82.82,0,0,1,0-.39L87.87,97.79a21.43,21.43,0,0,1-3.26,4.39l-2.61.71.92,8.55a.79.79,0,0,1,0,.15l15.12,171,6.42.2Z"
       transform="translate(-68.48,-5)"
       id="path32" />
    <path
       class="cls-8"
       d="M78.43,88.86c.32-.28.33-1.33.65-1.56-.13-.14,2.47-1.21,2.46-1.42V74c-.61.24-3.73.71-4.89,3.05-1.43,2.9-2.1,10.55.06,14.95C77.43,90.63,77.44,89.74,78.43,88.86Z"
       transform="translate(-68.48,-5)"
       id="path34" />
    <polygon
       class="cls-9"
       points="16.91 17.27 2.17 18.43 8.22 33.68 13.84 33.26 16.91 17.27"
       id="polygon36" />
    <path
       class="cls-7"
       d="M79.83,74.6a.83.83,0,0,1,0,.3L81.06,92c1.24-.57,2.33-5.8,3.54-5.53.78.18,2,5.06,2.69,5.53l-5-53.71a.83.83,0,0,1,.1-.45l-5.72.87,3.07,35.73A.79.79,0,0,1,79.83,74.6Z"
       transform="translate(-68.48,-5)"
       id="path38" />
    <path
       class="cls-1"
       d="M80.28,114a.85.85,0,1,1-1.19-1.22l4.39-4.3c2.45-3.31,8.32-12.62,6.6-16.72-1.82-4.33-4-7-6.25-7.5-1.43-.32-3,.24-4.58,1.67-5.5,4.9-6.42,19.49-5,27.7.7,3.93,4.66,16.4,9.68,28.85L81.37,113Z"
       transform="translate(-68.48,-5)"
       id="path40" />
    <path
       class="cls-4"
       d="M76.42,17.66A6.33,6.33,0,0,0,83,11.53,6.34,6.34,0,0,0,76.82,5h-.2a6.33,6.33,0,0,0-.19,12.66Z"
       transform="translate(-68.48,-5)"
       id="path42" />
    <polygon
       class="cls-10"
       points="18.55 15.55 0 16.79 0.81 20.1 18.64 18.81 18.55 15.55"
       id="polygon44" />
    <path
       class="cls-11"
       d="M135,160.87A22.57,22.57,0,0,0,147.64,159c6.91-3.05,27.85,2.9,27.85,2.9s-14.67,0-20.83,1.17-12,5-17.21,5.42C137.44,168.5,136.46,162.66,135,160.87Z"
       transform="translate(-68.48,-5)"
       id="path46" />
    <path
       class="cls-2"
       d="M198,153.34s2.86,10.2,6.54,13.6,10.6,3,10.6,3l2.31,3.22S199.49,181.4,198,153.34Z"
       transform="translate(-68.48,-5)"
       id="path48" />
    <path
       class="cls-2"
       d="M188.69,168.08a57.5,57.5,0,0,0,1.4,7.74s-9.11,14.51-21.3,21.46-10.45,1.84-29.6,15.16c0,0,10.85-10.3,20.37-15.21S185.49,176.29,188.69,168.08Z"
       transform="translate(-68.48,-5)"
       id="path50" />
    <path
       class="cls-2"
       d="M128,232l.94-5s3.59-4,14.37-6.28,21.94.6,46.77-28.27c0,0-11.52,23-29.59,28.31S134,227.91,128,232Z"
       transform="translate(-68.48,-5)"
       id="path52" />
    <path
       class="cls-12"
       d="M152.88,90.48a9,9,0,0,0,7.81-.45c4.41-2.21,9.16-4.5,11.49-8.33,0,0-4.51,8.86-13.06,13.46,0,0-3.49,3.1-4.64,6.31A23.5,23.5,0,0,0,152.88,90.48Z"
       id="path54"
       transform="translate(-68.48,-5)" />
    <path
       class="cls-13"
       d="M130.56,70.26A13.61,13.61,0,0,1,132.65,61c3-4.57,4.66-6.06,4.24-9.78a11.73,11.73,0,0,1-5.09,6c-3.83,2.13-4.39,8.53-4.39,8.53A11.37,11.37,0,0,0,130.56,70.26Z"
       id="path56"
       transform="translate(-68.48,-5)" />
    <path
       class="cls-13"
       d="M181.75,50.88s.49,6.51,7.84,10.86c0,0,5.1,3.22,4.58,8.46a11.91,11.91,0,0,0,3.09-5.3A17.4,17.4,0,0,0,190,58.48C184.94,55.94,185.47,57.61,181.75,50.88Z"
       id="path58"
       transform="translate(-68.48,-5)" />
    <path
       class="cls-12"
       d="M179.36,65.75c-.25-.15-2.36,0-2.08,3.42.1,1.16,1.56,1.76.78,2.54s-1.79,1.88-.57,2.41C179.57,75,183,67.92,179.36,65.75Z"
       id="path60"
       transform="translate(-68.48,-5)" />
    <path
       class="cls-12"
       d="M153.15,77.21a4.69,4.69,0,0,1-2.38-3,31.4,31.4,0,0,0,1.5-6.42c.4-2.44-.93-5.17-2.26-7.24l-1.92.23c3,3.31,2.14,10.1,1.49,11.87s-1,3.68,1.92,4.82A6.16,6.16,0,0,1,154.12,79C153.85,77.1,153.15,77.21,153.15,77.21Z"
       id="path62"
       transform="translate(-68.48,-5)" />
    <path
       class="cls-5"
       d="M149.78,60.1s1.06.59.66,1.25-.75.7-1.87.39-2.18-1.68-4.66-1.1-3.8,1-3.8,1S143.61,57.28,149.78,60.1Z"
       id="path64"
       transform="translate(-68.48,-5)" />
    <path
       class="cls-5"
       d="M157.47,59.83s-1.1.68-.52,1.35,1.24.5,2.39,0,2-1.72,6-1,5.41,2.24,5.41,2.24a7.51,7.51,0,0,0-5.65-3.52C161.14,58.45,160,58.71,157.47,59.83Z"
       id="path66"
       transform="translate(-68.48,-5)" />
    <path
       class="cls-14"
       d="M158.58,64.89a5.63,5.63,0,0,1,4-1.61c2.5,0,5.12,1.52,6.68,1.61a32.94,32.94,0,0,1-6.68,1.3C159.29,66.4,158.58,64.89,158.58,64.89Z"
       id="path68"
       transform="translate(-68.48,-5)" />
    <path
       class="cls-14"
       d="M148.95,64.89a7.32,7.32,0,0,0-3.63-1.25c-1.69.07-3.7,1.5-4.81,1.63,0,0,4.18,1.39,6,.94A4,4,0,0,0,148.95,64.89Z"
       id="path70"
       transform="translate(-68.48,-5)" />
    <circle
       class="cls-13"
       cx="94.36"
       cy="59.74"
       r="1.36"
       id="circle72" />
    <circle
       class="cls-13"
       cx="76.74"
       cy="60.01"
       r="1.24"
       id="circle74" />
    <path
       class="cls-12"
       d="M150.53,81.91a24.42,24.42,0,0,1,2.67-1.2,6.18,6.18,0,0,1,1.35.6l1.2-.6a18.75,18.75,0,0,1,4.11,1A78,78,0,0,1,150.53,81.91Z"
       id="path76"
       transform="translate(-68.48,-5)" />
    <path
       class="cls-12"
       d="M152.06,83.76a11.47,11.47,0,0,0,6,0,2.36,2.36,0,0,1-2.48,1.77C153.41,85.6,152.27,85.55,152.06,83.76Z"
       id="path78"
       transform="translate(-68.48,-5)" />
    <g
       id="g6136"
       clip-path="url(#clipPath6144)">
      <path
         class="cls-1"
         d="m 409.20026,194.59186 c 3.48,-0.88 11,0.27 13.32,1.7 -1,-5.08 -3.42,-16.45 -4.61,-21.41 a 120.47,120.47 0 0 1 -2.71,-12.89 c -0.62,-7.26 -6.71,-29 -14.37,-32.59 0.12,8.47 -2,25.65 -3.54,32.74 -1.89,8.81 9.91,29.99 11.91,32.45 z"
         id="path5077" />
      <path
         class="cls-3"
         d="m 421.04026,192.26186 c -2.05,-1.6 -4.89,-1.9 -8.45,-0.89 -0.33,0.09 -0.66,0.15 -1,0.23 -4.47,-6 -13.92,-20.11 -12.22,-28 2.26,-10.55 4.1,-32.19 2.59,-35 -0.9,-1.69 -5.75,-4.8 -8.23,-4.3 0.21,0.31 -3.9,-0.41 -3.69,-0.05 4,6.74 -0.12,19.6 -3.68,30 -1.27,3.7 -3.82,10.89 -4.39,13.46 -2.07,9.26 -0.51,21 -0.53,21.63 0.66,10.09 8.44,18.05 14.11,21.81 l 2.8,1.81 c 5.91,3.78 10.68,6.56 8.19,19.56 4.55,-2.82 18.88,-12.42 19.08,-18.78 v -0.31 c 0.2,-6 0.58,-17.16 -4.58,-21.17 z"
         id="path5079" />
      <path
         class="cls-2"
         d="m 392.71026,125.75186 c -2.47,-4.2 -4.87,-4.32 -8.19,-4.48 -2.63,-0.13 -9.71,-1.18 -13.56,-3.43 1,1.67 0.12,6.82 3.08,8.4 1.41,0.75 2.47,1.19 2.23,3 -0.81,6.12 -7.45,11 -14.77,12.65 -2.83,0.65 -6.48,1.11 -10.74,1.81 -8.8,1.45 -20.82,3.42 -24.23,5.74 -4.69,3.19 -6.93,16.22 -4,21.19 1.9,3.2 5.31,5.77 6.66,8.7 l 0.84,1.93 a 30.82,30.82 0 0 1 1.26,3.75 c 1,3.68 0.95,16.7 0.28,25.06 28.35,-1.24 49,-21.25 51.3,-23.53 0.08,-2 0.6,-13.28 2.56,-22 0.6,-2.66 1.81,-6.2 3.09,-10 3.47,-10.11 7.77,-22.72 4.19,-28.79 z"
         id="path5081" />
      <path
         class="cls-4"
         d="m 331.09026,62.231858 c 4.87,-8.6 13.3,-8.42 20.42,-6 4.44,-2.49 7.83,-2.75 13.32,-0.82 5.76,2 8.38,5.79 10.06,10.27 1.43,3.8 5.59,3 8.45,3.61 0.14,0 -0.14,-3.65 0,-3.61 -3.81,-27.72 -19.45,-34.56 -31,-37.29 -8.88,-2.1 -17.44,-0.16 -22.9,5.2 -11.16,11 -4.31,26.66 -2.06,31 0.39,-0.74 3.12,-1.32 3.71,-2.36 z"
         id="path5083" />
      <path
         class="cls-5"
         d="m 381.36026,77.521858 a 73.83,73.83 0 0 0 10.1,5.8 c 1.74,-4.65 2.24,-7.53 -1.3,-11.82 -2.54,-3.08 -5.12,-3.68 -7.62,-4.25 -2.86,-0.66 -5.81,-1.34 -7.56,-6 -1.52,-4 -5.92,-7.84 -11.23,-9.7 -5.31,-1.86 -10.24,-1.47 -14.3,0.94 -6.59,-2.6 -16.88,0.07 -21,7.35 a 27.67,27.67 0 0 0 -1.9,3.93 0.83,0.83 0 0 1 -0.17,0.45 14.11,14.11 0 0 0 -0.56,2.25 c -0.3,1.67 -0.58,2.66 -3.26,5.15 -4.5,4.19 -1.86,13.57 2.19,17 a 12.74,12.74 0 0 0 0.94,6.49 c 2.42,5.240002 12.12,6.830002 15,6.940002 a 51.58,51.58 0 0 1 -4.71,-10.000002 l 12.98,-26.62 c 1.79,-0.23 3.63,-3 10.92,5.39 a 0.77,0.77 0 0 1 0.06,0.11 0.78,0.78 0 0 1 0.07,0.1 l 8.57,15.07 6.2,5.09 a 15.45,15.45 0 0 1 -4.84,3.54 4.14,4.14 0 0 1 -2.58,0.44 l -0.16,4.67 v 0 c 0,0 1.81,10.490002 3.32,16.380002 1.64,0.07 7.8,-0.62 9,-1.73 a 1.37,1.37 0 0 0 0.5,-1 c 0,-1.26 -0.78,-2.52 -1.65,-3.85 -1.34,-2.06 -2.85,-4.39 -1.14,-7.09 1.07,-1.69 3,-2.650002 4.88,-3.580002 2.89,-1.44 5.62,-2.79 6,-6.57 0.65,-6.61 0.53,-10.05 -6.81,-14.84 l 0.39,-0.86 c 0.11,-0.02 -0.38,0.79 -0.33,0.82 z"
         id="path5085" />
      <path
         class="cls-1"
         d="m 379.71026,125.65186 a 14.91,14.91 0 0 1 -7.57,-9 v 0 a 97.5,97.5 0 0 1 -2.38,-13.84 l 0.24,-6.860002 1.1,0.23 a 2.63,2.63 0 0 0 2.3,-0.06 c 2.09,-1.08 3.4,-4.87 3.73,-6.24 0.09,-0.26 1.82,-4.24 -1.3,-7 -2.6,-2.3 -4.25,-0.55 -4.25,-0.55 a 3.66,3.66 0 0 0 -0.82,0.87 l -4.56,-10.14 a 18.47,18.47 0 0 0 -8.31,-8.95 15.32,15.32 0 0 0 -9,-1.77 h -0.11 c -0.57,0 -13.89,1 -14.9,11.72 0,0 -0.3,2.28 -0.35,4.51 v 3.66 a 42.57,42.57 0 0 0 1.54,10.86 c 2.34,7.490002 9.64,16.000002 14.21,16.570002 l 0.62,1.77 a 6.62,6.62 0 0 1 -0.82,0 6.85,6.85 0 0 1 -1.13,-0.24 c 0.74,2.31 2.31,8.73 -1.25,13.25 -1.56,2 -4.57,2.57 -8.39,3.32 -6.91,1.36 -16.38,3.22 -21.49,15.2 l -17,27.07 c -0.08,-0.15 -12.12,-22.73 -18.36,-34.46 l 2,37.27 a 164.47,164.47 0 0 0 11.74,18.16 3.71,3.71 0 0 0 3.23,1.44 c 2.64,-0.22 7.27,-1.46 12,-6.73 9.14,-10.14 11.53,-14.07 12.08,-15.11 -3.08,-5.88 0.46,-14.64 5.65,-18.17 3.72,-2.53 14.41,-4.3 23.85,-5.85 4.22,-0.7 8.21,-1.36 11,-2 7,-1.61 16.95,-11.75 17.6,-16.72 a 1.89,1.89 0 0 0 -0.9,-2.21 z"
         id="path5087" />
      <path
         class="cls-12"
         d="m 347.08026,108.91186 a 9,9 0 0 0 7.81,-0.45 c 4.41,-2.21 9.16,-4.5 11.49,-8.33 0,0 -4.51,8.86 -13.06,13.46 0,0 -3.49,3.1 -4.64,6.31 a 23.5,23.5 0 0 0 -1.6,-10.99 z"
         id="path5089" />
      <path
         class="cls-13"
         d="m 324.76026,88.691858 a 13.61,13.61 0 0 1 2.09,-9.26 c 3,-4.57 4.66,-6.06 4.24,-9.78 a 11.73,11.73 0 0 1 -5.09,6 c -3.83,2.13 -4.39,8.53 -4.39,8.53 a 11.37,11.37 0 0 0 3.15,4.51 z"
         id="path5091" />
      <path
         class="cls-13"
         d="m 375.95026,69.311858 c 0,0 0.49,6.51 7.84,10.86 0,0 5.1,3.22 4.58,8.46 a 11.91,11.91 0 0 0 3.09,-5.3 17.4,17.4 0 0 0 -7.26,-6.42 c -5.06,-2.54 -4.53,-0.87 -8.25,-7.6 z"
         id="path5093" />
      <path
         class="cls-12"
         d="m 373.56026,84.181858 c -0.25,-0.15 -2.36,0 -2.08,3.42 0.1,1.16 1.56,1.76 0.78,2.54 -0.78,0.78 -1.79,1.88 -0.57,2.41 2.08,0.88 5.51,-6.2 1.87,-8.37 z"
         id="path5095" />
      <path
         class="cls-12"
         d="m 347.35026,95.641858 a 4.69,4.69 0 0 1 -2.38,-3 31.4,31.4 0 0 0 1.5,-6.42 c 0.4,-2.44 -0.93,-5.17 -2.26,-7.24 l -1.92,0.23 c 3,3.31 2.14,10.1 1.49,11.87 -0.65,1.77 -1,3.68 1.92,4.82 a 6.16,6.16 0 0 1 2.62,1.53 c -0.27,-1.9 -0.97,-1.79 -0.97,-1.79 z"
         id="path5097" />
      <path
         class="cls-5"
         d="m 343.98026,78.531858 c 0,0 1.06,0.59 0.66,1.25 -0.4,0.66 -0.75,0.7 -1.87,0.39 -1.12,-0.31 -2.18,-1.68 -4.66,-1.1 -2.48,0.58 -3.8,1 -3.8,1 0,0 3.5,-4.36 9.67,-1.54 z"
         id="path5099" />
      <path
         class="cls-5"
         d="m 351.67026,78.261858 c 0,0 -1.1,0.68 -0.52,1.35 0.58,0.67 1.24,0.5 2.39,0 1.15,-0.5 2,-1.72 6,-1 4,0.72 5.41,2.24 5.41,2.24 a 7.51,7.51 0 0 0 -5.65,-3.52 c -3.96,-0.45 -5.1,-0.19 -7.63,0.93 z"
         id="path5101" />
      <path
         class="cls-14"
         d="m 352.78026,83.321858 a 5.63,5.63 0 0 1 4,-1.61 c 2.5,0 5.12,1.52 6.68,1.61 a 32.94,32.94 0 0 1 -6.68,1.3 c -3.29,0.21 -4,-1.3 -4,-1.3 z"
         id="path5103" />
      <path
         class="cls-14"
         d="m 343.15026,83.321858 a 7.32,7.32 0 0 0 -3.63,-1.25 c -1.69,0.07 -3.7,1.5 -4.81,1.63 0,0 4.18,1.39 6,0.94 a 4,4 0 0 0 2.44,-1.32 z"
         id="path5105" />
      <circle
         class="cls-13"
         cx="357.04025"
         cy="83.17186"
         r="1.36"
         id="circle5107" />
      <circle
         class="cls-13"
         cx="339.42026"
         cy="83.441856"
         r="1.24"
         id="circle5109" />
      <path
         class="cls-12"
         d="m 344.73026,100.34186 a 24.42,24.42 0 0 1 2.67,-1.200002 6.18,6.18 0 0 1 1.35,0.6 l 1.2,-0.6 a 18.75,18.75 0 0 1 4.11,1.000002 78,78 0 0 1 -9.33,0.2 z"
         id="path5111" />
      <path
         class="cls-12"
         d="m 346.26026,102.19186 a 11.47,11.47 0 0 0 6,0 2.36,2.36 0 0 1 -2.48,1.77 c -2.17,0.07 -3.31,0.02 -3.52,-1.77 z"
         id="path5113" />
    </g>
  </g>
</svg>
