<?xml version="1.0" standalone="no"?>
<!DOCTYPE svg PUBLIC "-//W3C//DTD SVG 20010904//EN"
 "http://www.w3.org/TR/2001/REC-SVG-20010904/DTD/svg10.dtd">
<svg version="1.0" xmlns="http://www.w3.org/2000/svg"
 width="800.000000pt" height="800.000000pt" viewBox="0 0 800.000000 800.000000"
 preserveAspectRatio="xMidYMid meet">
<metadata>
Created by potrace 1.14, written by Peter Selinger 2001-2017
</metadata>
<g transform="translate(0.000000,800.000000) scale(0.100000,-0.100000)"
fill="#000000" stroke="none">
<path d="M4010 5964 c-120 -21 -153 -28 -205 -46 -33 -12 -85 -33 -116 -49
l-56 -28 -60 19 c-282 88 -664 22 -934 -161 -224 -151 -379 -395 -454 -713
-14 -60 -37 -127 -50 -150 -13 -22 -67 -88 -120 -144 -64 -69 -106 -124 -125
-164 -110 -233 -24 -651 179 -863 l44 -46 3 -107 c2 -108 14 -168 55 -277 30
-83 152 -203 264 -261 151 -79 371 -146 554 -169 l53 -7 -49 73 c-254 378
-345 744 -330 1329 7 250 18 351 48 455 76 258 302 443 659 538 110 29 124 31
315 31 193 1 203 0 285 -28 256 -85 486 -266 619 -487 33 -56 230 -480 333
-718 l19 -44 37 35 c48 46 72 58 118 58 87 0 206 -96 243 -195 45 -119 17
-289 -79 -490 -38 -81 -104 -166 -143 -187 -42 -22 -87 -26 -145 -12 -31 7
-62 13 -68 14 -8 0 -14 -67 -19 -222 -5 -180 -4 -247 9 -348 25 -185 63 -409
94 -545 l28 -120 69 2 c151 5 356 56 398 99 49 49 30 128 -66 281 -91 144
-121 217 -121 293 0 152 89 247 355 380 198 100 271 160 320 265 29 62 49 181
49 298 0 55 3 62 41 105 69 78 115 170 168 327 59 181 75 279 61 373 -31 196
-219 428 -416 513 -25 10 -115 37 -200 60 -173 45 -211 59 -269 99 -85 59
-125 111 -192 250 -79 164 -126 232 -229 330 -171 163 -401 283 -645 336 -73
15 -280 27 -329 18z m2017 -2286 c-3 -8 -6 -5 -6 6 -1 11 2 17 5 13 3 -3 4
-12 1 -19z"/>
<path d="M3945 4321 c-59 -13 -177 -59 -196 -77 -29 -26 -30 -54 -3 -81 33
-33 70 -27 183 29 77 38 95 43 168 47 141 6 316 -37 427 -104 32 -19 61 -33
63 -31 3 2 -24 34 -60 70 -70 71 -153 118 -242 136 -71 14 -292 21 -340 11z"/>
<path d="M2935 4287 c-69 -18 -166 -71 -206 -114 -23 -24 -28 -34 -15 -29 10
3 73 20 140 37 151 39 193 36 306 -17 78 -36 85 -42 106 -89 42 -91 57 -203
51 -364 -4 -117 -10 -163 -31 -234 -54 -182 -25 -250 135 -312 35 -14 80 -39
101 -55 20 -17 39 -30 42 -30 3 0 -1 19 -8 43 -9 33 -22 49 -59 73 -69 45 -84
62 -112 118 l-25 51 31 105 c30 105 69 307 69 359 0 49 -39 181 -75 257 -19
40 -35 81 -35 91 0 79 -263 149 -415 110z"/>
<path d="M4065 4028 c-75 -41 -50 -158 35 -158 82 0 112 118 39 155 -33 18
-47 18 -74 3z"/>
<path d="M2961 3984 c-24 -30 -26 -43 -10 -77 11 -24 47 -47 73 -47 7 0 25 9
40 21 33 26 36 79 6 109 -30 30 -83 27 -109 -6z"/>
<path d="M5061 3882 c-48 -24 -73 -78 -74 -156 -1 -55 4 -70 31 -113 38 -59
38 -64 11 -89 -12 -10 -32 -38 -46 -61 -19 -33 -22 -46 -14 -62 23 -43 76 -38
129 13 71 66 113 171 113 282 1 82 -21 135 -71 178 -37 31 -36 31 -79 8z"/>
<path d="M3415 2936 l-70 -33 83 -7 c81 -7 290 -2 422 11 l65 6 -70 23 c-106
34 -169 40 -214 19 -35 -16 -41 -16 -69 -1 -43 22 -67 19 -147 -18z"/>
<path d="M4555 2776 c-51 -52 -128 -117 -177 -149 -86 -56 -379 -213 -476
-255 -98 -42 -228 -50 -350 -20 -23 6 -45 8 -47 6 -3 -3 6 -38 20 -78 42 -124
68 -281 69 -425 l1 -130 49 82 c27 45 84 122 126 171 62 70 98 101 176 150
229 141 460 368 622 610 54 79 87 134 80 131 -2 -1 -43 -43 -93 -93z"/>
<path d="M3444 2758 c3 -18 13 -40 22 -49 23 -25 117 -43 188 -35 68 7 113 32
140 76 l18 32 -68 -9 c-88 -10 -221 -8 -269 6 l-37 10 6 -31z"/>
</g>
</svg>
